<svg version="1.0" xmlns="http://www.w3.org/2000/svg" viewBox="0 0 2001 1201"><g stroke-width="0"><path d="M39.3 2.4C21.2 6.8 5.9 22.6 2.1 40.8.5 48.4.5 1153.6 2.1 1161.2c3.9 18.7 20 34.8 38.7 38.7 7.3 1.5 113.1 1.5 120.4 0 18.7-3.9 34.8-20 38.7-38.7.7-3.6 1.1-30.1 1.1-82.7V1001h1600v77.5c0 52.6.4 79.1 1.1 82.7 3.9 18.7 20 34.8 38.7 38.7 7.3 1.5 113.1 1.5 120.4 0 19.1-4 35.2-20.3 38.8-39.4 1.6-8.8.9-635.5-.8-647.5-6.4-45-15.2-76.2-31.5-111.2-9.8-21.1-25.4-46.3-41.3-66.8-11.4-14.8-44.6-48-59.4-59.4-46.3-35.8-99.1-59.5-154.5-69.2-29.2-5.1-3.5-4.8-398.5-5.2-270.1-.2-368.1 0-372.5.8-19.1 3.6-35.4 19.7-39.4 38.8-.8 3.8-1.1 70.6-1.1 232.7V701H201V373.5c0-235.1-.3-328.9-1.1-332.7-3.9-18.7-20-34.8-38.7-38.7-7.8-1.6-115-1.4-121.9.3z"/><path d="M532.5 101.6c-1.6.2-7.3.9-12.5 1.5-40.7 4.6-83.3 21.7-117.3 47-55.5 41.3-90.2 100.3-99.8 169.9-1.7 12.2-1.8 49.6-.1 61.5 9.9 70.4 44 128.7 99.4 170.1 33.9 25.3 73.9 41.5 117.8 47.5 14.1 2 50.6 1.7 65.5-.5 54.4-8 102.8-32 141-70.1 40.6-40.4 64.7-89.2 72.6-146.5 1.8-12.5 1.8-49.7.1-62-3.7-25.9-10.6-50.2-20.9-72.6-35.4-77.6-107.8-131.7-192.3-143.9-10.8-1.6-46.7-2.9-53.5-1.9z"/></g></svg>