<?xml version="1.0" encoding="utf-8"?>
<!-- Svg Vector Icons : http://www.onlinewebfonts.com/icon -->
<!DOCTYPE svg PUBLIC "-//W3C//DTD SVG 1.1//EN" "http://www.w3.org/Graphics/SVG/1.1/DTD/svg11.dtd">
<svg version="1.1" xmlns="http://www.w3.org/2000/svg" xmlns:xlink="http://www.w3.org/1999/xlink" x="0px" y="0px" viewBox="0 0 1000 1000" enable-background="new 0 0 1000 1000" xml:space="preserve">
<metadata> Svg Vector Icons : http://www.onlinewebfonts.com/icon </metadata>
<g><g transform="translate(0.000000,511.000000) scale(0.100000,-0.100000)"><path d="M4698.1,4904.7c-1439.3-92-2761.6-806.8-3631.7-1964.4C466.5,2141.2,106.2,1102.4,100.5,151.9c-1.9-262.6,0-281.7,46-362.2C248-390.5,441.6-472.9,658.2-426.9C800-398.2,895.8-329.2,961-208.4c46,84.3,55.6,128.4,69,339.2c26.8,410.1,63.2,634.3,151.4,950.6c299,1061.7,1069.4,1972,2079.4,2455c551.9,264.5,1119.2,391,1749.7,391c668.9,0,1220.8-124.6,1749.7-394.8c249.1-128.4,576.9-360.3,726.3-513.6l84.3-88.2h-429.3c-461.9-1.9-519.3-11.5-640.1-103.5c-155.2-116.9-203.1-379.5-101.6-553.9c57.5-97.7,141.8-168.7,241.5-203.1c88.2-28.8,2159.8-30.7,2238.4,0c107.3,40.2,195.5,116.9,245.3,214.6l47.9,97.7v1079c0,1178.6,1.9,1157.5-111.2,1276.4c-88.2,93.9-191.6,136.1-331.5,138c-107.3,0-139.9-7.7-220.4-57.5c-57.5-36.4-115-93.9-151.4-151.4l-57.5-93.9l-5.7-448.5c-3.8-245.3-9.6-446.5-15.3-446.5c-5.8,0-76.7,57.5-161,126.5c-553.9,458-1389.4,860.5-2079.4,1002.3C5608.4,4895.1,5110.1,4931.5,4698.1,4904.7z"/><path d="M9197.9,602.2c-97.7-49.8-174.4-138-216.6-249.1c-11.5-30.7-30.7-182.1-40.2-335.4c-36.4-596-143.7-1013.8-391-1523.6C7996.3-2650,6930.8-3447.2,5656.3-3671.5c-544.3-95.8-1224.6-65.2-1780.4,80.5c-515.5,134.2-1038.7,419.7-1377.9,749.3l-92,90.1l469.5,9.6l467.6,9.6l82.4,57.5c174.4,122.6,243.4,306.6,187.8,502.1c-32.6,122.6-166.7,256.8-285.6,289.4c-65.2,19.2-346.9,23-1159.5,19.2l-1073.2-5.8l-72.8-44.1c-38.3-24.9-95.8-86.2-124.6-134.2l-51.7-90.1l-5.8-1034.9c-3.8-718.7,0-1065.5,15.3-1134.6c63.2-287.5,366-433.1,630.5-300.9c122.6,61.3,201.2,164.8,230,297.1c11.5,51.7,21.1,268.3,21.1,481v383.3l101.6-84.3c505.9-431.2,1178.6-791.5,1814.9-973.6c1163.3-335.4,2439.7-218.5,3512.9,318.1c1552.3,778.1,2554.6,2248,2715.6,3984.3c38.3,408.2,17.3,574.9-84.3,707.2C9684.7,654,9395.3,700,9197.9,602.2z"/></g></g>
</svg>